<svg width="256" height="256" viewBox="0 0 256 256" fill="none" xmlns="http://www.w3.org/2000/svg">
<path d="M236.99 49.3433H19.0099C12.0107 49.3433 6.33667 55.0233 6.33667 62.0299V193.97C6.33667 200.977 12.0107 206.657 19.0099 206.657H236.99C243.989 206.657 249.663 200.977 249.663 193.97V62.0299C249.663 55.0233 243.989 49.3433 236.99 49.3433Z" fill="black" stroke="black" stroke-width="10"/>
<path d="M188.832 178.746L150.812 136.881H176.158V77.2537H201.505V136.881H226.851L188.832 178.746Z" fill="white"/>
<path d="M38.0198 178.746L124.198 178.746L124.198 153.373L74.7723 153.373L106.455 128L74.7722 102.627L124.198 102.627L124.198 77.2537L38.0198 77.2537L38.0198 102.627L69.7029 128L38.0198 153.373L38.0198 178.746Z" fill="white"/>
</svg>
